<svg height="100%" width="100%" id="svg" viewBox="0 0 1440 600" xmlns="http://www.w3.org/2000/svg" class="transition duration-300 ease-in-out delay-150"><defs><linearGradient id="gradient"><stop offset="5%" stop-color="#9ef0f088"></stop><stop offset="95%" stop-color="#78a9ff88"></stop></linearGradient></defs><path d="M 0,600 C 0,600 0,200 0,200 C 103.88516746411483,199.444976076555 207.77033492822966,198.88995215311004 286,216 C 364.22966507177034,233.11004784688996 416.8038277511962,267.88516746411483 527,248 C 637.1961722488038,228.1148325358852 805.0143540669858,153.5693779904306 909,134 C 1012.9856459330142,114.43062200956939 1053.138755980861,149.8373205741627 1131,170 C 1208.861244019139,190.1626794258373 1324.4306220095696,195.08133971291863 1440,200 C 1440,200 1440,600 1440,600 Z" stroke="none" stroke-width="0" fill="url(#gradient)" class="transition-all duration-300 ease-in-out delay-150"></path><defs><linearGradient id="gradient"><stop offset="5%" stop-color="#9ef0f0ff"></stop><stop offset="95%" stop-color="#78a9ffff"></stop></linearGradient></defs><path d="M 0,600 C 0,600 0,400 0,400 C 93.15789473684214,418.93779904306217 186.31578947368428,437.87559808612434 292,428 C 397.6842105263157,418.12440191387566 515.8947368421051,379.43540669856463 600,374 C 684.1052631578949,368.56459330143537 734.1052631578948,396.38277511961724 831,403 C 927.8947368421052,409.61722488038276 1071.6842105263158,395.03349282296654 1181,391 C 1290.3157894736842,386.96650717703346 1365.157894736842,393.48325358851673 1440,400 C 1440,400 1440,600 1440,600 Z" stroke="none" stroke-width="0" fill="url(#gradient)" class="transition-all duration-300 ease-in-out delay-150"></path></svg>