<?xml version="1.0" standalone="no"?>
<!DOCTYPE svg PUBLIC "-//W3C//DTD SVG 20010904//EN"
 "http://www.w3.org/TR/2001/REC-SVG-20010904/DTD/svg10.dtd">
<svg version="1.0" xmlns="http://www.w3.org/2000/svg"
 width="261.000000pt" height="261.000000pt" viewBox="0 0 261.000000 261.000000"
 preserveAspectRatio="xMidYMid meet">
<metadata>
Created by potrace 1.14, written by Peter Selinger 2001-2017
</metadata>
<g transform="translate(0.000000,261.000000) scale(0.100000,-0.100000)"
fill="#121212" stroke="none">
<path d="M1105 2595 c-313 -51 -596 -212 -794 -451 -132 -159 -215 -321 -268
-522 -34 -131 -43 -389 -19 -532 82 -467 418 -861 866 -1010 126 -43 213 -59
360 -66 400 -21 792 152 1049 462 132 159 215 321 268 522 31 119 43 374 24
500 -73 470 -390 863 -831 1029 -186 71 -463 99 -655 68z m-476 -962 c5 -27
31 -158 57 -293 26 -135 50 -248 53 -252 4 -4 28 88 55 205 26 116 57 251 68
300 l21 87 97 0 98 0 31 -132 c17 -73 49 -209 70 -303 21 -93 41 -163 44 -155
3 8 27 123 52 255 26 132 51 261 57 288 l10 47 314 0 c342 0 345 0 407 -58 26
-25 57 -103 57 -146 0 -76 -48 -147 -113 -169 l-42 -14 42 -6 c57 -9 117 -66
133 -127 24 -91 -13 -199 -88 -254 l-44 -31 -249 -3 -249 -3 0 387 c0 213 -2
385 -5 382 -3 -3 -45 -176 -94 -384 l-87 -379 -101 -3 c-90 -2 -102 -1 -107
15 -3 10 -35 149 -71 308 -37 160 -68 291 -69 292 -1 1 -30 -123 -65 -275 -35
-152 -68 -292 -73 -310 l-9 -33 -101 3 -101 3 -88 390 c-49 215 -89 396 -89
403 0 9 23 12 84 12 l84 0 11 -47z"/>
<path d="M1680 1440 l0 -90 105 0 c130 0 145 10 145 93 0 80 -12 87 -143 87
l-107 0 0 -90z"/>
<path d="M1687 1204 c-4 -4 -7 -47 -7 -96 l0 -88 120 0 c146 0 160 8 160 93 0
82 -15 91 -154 95 -61 2 -114 0 -119 -4z"/>
</g>
</svg>
