<?xml version="1.0" standalone="no"?>
<!DOCTYPE svg PUBLIC "-//W3C//DTD SVG 20010904//EN"
 "http://www.w3.org/TR/2001/REC-SVG-20010904/DTD/svg10.dtd">
<svg version="1.0" xmlns="http://www.w3.org/2000/svg"
 width="321.000000pt" height="321.000000pt" viewBox="0 0 321.000000 321.000000"
 preserveAspectRatio="xMidYMid meet">
<metadata>
Created by potrace 1.14, written by Peter Selinger 2001-2017
</metadata>
<g transform="translate(0.000000,321.000000) scale(0.100000,-0.100000)"
fill="#000000" stroke="none">
<path d="M1180 3027 c-3 -3 -36 -7 -75 -10 -223 -18 -491 -126 -701 -283 -61
-45 -214 -192 -214 -205 0 -4 -6 -14 -13 -21 -58 -61 -134 -229 -163 -363 -10
-50 -13 -276 -3 -335 5 -30 11 -71 14 -90 39 -250 112 -460 216 -620 38 -58
61 -107 74 -155 69 -268 241 -434 600 -582 359 -147 452 -171 688 -171 214 -1
410 41 586 124 89 42 232 130 276 171 11 10 38 31 60 48 63 47 267 253 321
325 27 36 51 67 54 70 51 51 180 313 215 440 51 180 84 385 81 495 -4 104 -5
110 -29 191 -35 117 -125 266 -211 349 -52 51 -133 115 -144 115 -6 0 -12 3
-14 8 -5 12 -119 68 -188 92 -36 13 -87 40 -115 60 -73 54 -146 93 -275 145
-223 92 -450 164 -561 180 -19 3 -47 8 -64 11 -39 7 -409 16 -415 11z"/>
</g>
</svg>
