<?xml version="1.0" standalone="no"?>
<!DOCTYPE svg PUBLIC "-//W3C//DTD SVG 20010904//EN"
 "http://www.w3.org/TR/2001/REC-SVG-20010904/DTD/svg10.dtd">
<svg version="1.0" xmlns="http://www.w3.org/2000/svg"
 width="372.000000pt" height="372.000000pt" viewBox="0 0 372.000000 372.000000"
 preserveAspectRatio="xMidYMid meet">
<metadata>
Created by potrace 1.14, written by Peter Selinger 2001-2017
</metadata>
<g transform="translate(0.000000,372.000000) scale(0.100000,-0.100000)"
fill="#000000" stroke="none">
<path d="M1607 3703 c-494 -70 -948 -339 -1239 -735 -174 -236 -287 -497 -342
-793 -28 -146 -28 -530 -1 -625 2 -8 6 -26 9 -40 33 -188 123 -423 234 -614
94 -160 294 -384 450 -504 267 -203 521 -311 892 -377 61 -11 382 -13 460 -4
857 108 1519 758 1634 1604 13 97 15 409 2 483 -3 18 -8 52 -11 75 -11 71 -64
265 -97 351 -32 83 -134 288 -171 341 -44 64 -133 181 -162 214 -309 346 -676
545 -1155 626 -77 13 -406 12 -503 -2z"/>
</g>
</svg>
